<svg width="66" height="66" viewBox="0 0 66 66" fill="none" xmlns="http://www.w3.org/2000/svg">
<path fill-rule="evenodd" clip-rule="evenodd" d="M21.5609 59.0002C22.4074 59.0002 23.0261 59.1795 23.4168 59.5381C23.8075 59.8967 24.0031 60.4544 24.0035 61.2112V65.2675H22.7337V61.3828C22.7337 60.5274 22.2541 60.0997 21.2949 60.0997C20.8806 60.0963 20.4738 60.2107 20.1221 60.4297C20.1829 60.6856 20.2115 60.9481 20.2072 61.2112V65.2675H18.9374V61.3828C18.9374 60.5274 18.4578 60.0997 17.4986 60.0997C17.0609 60.1001 16.6268 60.1788 16.2168 60.332V65.2675H14.9477V59.6357C15.3679 59.4268 15.8127 59.2716 16.2716 59.1737C16.7612 59.0596 17.2619 59.0003 17.7645 58.9969C18.5565 58.9969 19.145 59.1509 19.53 59.4589C20.1641 59.1559 20.8581 58.9992 21.5609 59.0002ZM28.3542 65.4536C27.3862 65.4536 26.6587 65.1767 26.1716 64.6227C25.6846 64.0687 25.4408 63.2624 25.4403 62.2038C25.4403 60.0614 26.4083 58.9905 28.3443 58.9909C29.3198 58.9909 30.0533 59.2657 30.5448 59.8153C31.0363 60.3648 31.2822 61.161 31.2827 62.2038C31.2827 63.2457 31.0288 64.0478 30.521 64.6102C30.0133 65.1725 29.291 65.4536 28.3542 65.4536ZM28.3417 64.366C29.4545 64.366 30.0106 63.6452 30.0102 62.2038C30.0102 61.487 29.8782 60.9516 29.6142 60.5974C29.3502 60.2432 28.9269 60.0658 28.3443 60.0654C27.7561 60.0654 27.335 60.2467 27.0811 60.6092C26.8272 60.9718 26.7003 61.5033 26.7003 62.2038C26.7003 62.9038 26.8312 63.4393 27.093 63.8102C27.3548 64.1812 27.771 64.3655 28.3417 64.3633V64.366ZM35.5219 59.0028C36.4247 59.0028 37.1098 59.2756 37.5771 59.8212C38.0444 60.3668 38.2787 61.1397 38.28 62.1398C38.28 63.3454 37.9999 64.1985 37.4398 64.6993C36.8797 65.2 36.1678 65.4514 35.3041 65.4536C33.5709 65.4536 32.7043 64.9894 32.7043 64.061V56.6789H33.9623V59.3816C34.2152 59.2608 34.4809 59.1685 34.7543 59.1064C35.0053 59.042 35.2628 59.0063 35.5219 59.0002V59.0028ZM35.207 64.3415C35.867 64.3415 36.329 64.1501 36.593 63.7673C36.857 63.3845 36.989 62.8592 36.989 62.1913C36.989 61.5075 36.85 60.9863 36.5719 60.6277C36.2938 60.2691 35.8809 60.09 35.3331 60.0905C35.0944 60.0921 34.8569 60.1227 34.6256 60.1816C34.3941 60.2375 34.1718 60.3264 33.9656 60.4456V63.7456C33.9634 64.1416 34.3772 64.3393 35.207 64.3389V64.3415ZM39.7148 56.999H41.0692V58.16H39.7148V56.999ZM39.7511 59.1737H41.021L41.0329 65.2702H39.7511V59.1737ZM42.8201 65.2702V56.8136H44.0781V65.2675L42.8201 65.2702ZM48.3318 58.9856C49.2752 58.9856 49.9664 59.2936 50.4055 59.9096C50.8446 60.5256 51.0602 61.3869 51.0523 62.4935H46.794C46.8349 63.0963 47.0109 63.5546 47.322 63.8683C47.6331 64.182 48.0744 64.3387 48.646 64.3382C49.3307 64.339 50.0045 64.1667 50.6048 63.8373V65.0345C49.9761 65.3139 49.2558 65.4536 48.444 65.4536C47.5332 65.4536 46.8178 65.1747 46.2977 64.6168C45.7776 64.0588 45.5178 63.2668 45.5182 62.2408C45.5182 61.19 45.764 60.3859 46.2554 59.8285C46.7469 59.271 47.439 58.99 48.3318 58.9856ZM48.2955 60.0416C47.8683 60.0416 47.5339 60.1558 47.2923 60.3842C47.0507 60.6125 46.8934 60.9993 46.8204 61.5445H49.7587C49.702 61.0231 49.5568 60.6425 49.3231 60.4027C49.0895 60.1629 48.7469 60.0425 48.2955 60.0416ZM36.168 9.77999C34.7675 9.43371 33.6895 9.26035 32.934 9.25991C27.2983 9.25991 22.7291 13.8139 22.7291 19.4299C22.7291 25.0458 27.3002 29.6005 32.934 29.6005C38.5678 29.6005 43.1396 25.0465 43.1396 19.4299C43.14 18.6094 43.0411 17.7919 42.8452 16.9951L50.9586 14.8099C51.6158 17.3084 51.7401 19.9173 51.3234 22.4671C50.9066 25.0168 49.9582 27.4504 48.5397 29.6097L35.1047 54.5174H22.6584L31.5025 38.2154C31.5506 38.1257 31.4087 37.9277 31.2899 37.9171C21.8394 37.0591 14.4368 29.1391 14.4368 19.4972C14.4368 9.28103 22.7462 1.00001 32.9973 1.00001C34.8739 0.997948 36.7399 1.27988 38.5321 1.83623L36.168 9.77999Z" fill="#006E53"/>
<path d="M32.8726 25.0415C35.9618 25.0415 38.4661 22.5372 38.4661 19.448C38.4661 16.3588 35.9618 13.8545 32.8726 13.8545C29.7834 13.8545 27.2791 16.3588 27.2791 19.448C27.2791 22.5372 29.7834 25.0415 32.8726 25.0415Z" fill="#D6E806"/>
<path d="M42.5344 15.6349C41.5653 13.2091 39.6976 11.2508 37.3204 10.1681M46.0944 14.1089C44.7258 10.7446 42.138 8.02058 38.8483 6.48132M49.5271 12.9652C47.7838 8.52981 44.3557 4.96484 39.992 3.04932" stroke="#D6E806" stroke-width="1.27129" stroke-linecap="round"/>
</svg>
