<svg width="21" height="21" viewBox="0 0 21 21" fill="none" xmlns="http://www.w3.org/2000/svg">
<g clip-path="url(#clip0_1281_3133)">
<path fill-rule="evenodd" clip-rule="evenodd" d="M1.26263 1.26244C1.26263 0.714341 1.70855 0.27002 2.25861 0.27002H3.75256C4.57765 0.27002 5.24652 0.936502 5.24652 1.75865V2.31495L17.7252 3.2157C18.5954 3.26989 19.2343 4.05194 19.111 4.91195L18.2523 10.901C18.1472 11.6343 17.5168 12.1791 16.7734 12.1791H5.24652V14.1639H15.2133C16.8635 14.1639 18.2013 15.4969 18.2013 17.1412C18.2013 18.7855 16.8635 20.1184 15.2133 20.1184C13.5632 20.1184 12.2254 18.7855 12.2254 17.1412C12.2254 16.7932 12.2853 16.4592 12.3954 16.1488H7.06845C7.17855 16.4592 7.23846 16.7932 7.23846 17.1412C7.23846 18.7855 5.90073 20.1184 4.25055 20.1184C2.60037 20.1184 1.26263 18.7855 1.26263 17.1412C1.26263 15.8449 2.09408 14.742 3.25458 14.3333V3.25645C3.25453 3.25098 3.25453 3.2455 3.25458 3.24001V2.25486H2.25861C1.70855 2.25486 1.26263 1.81054 1.26263 1.26244ZM5.24652 4.30367V10.1942H16.3415L17.0628 5.16316L5.24652 4.30367ZM14.2174 17.1412C14.2174 16.5931 14.6633 16.1488 15.2133 16.1488C15.7634 16.1488 16.2093 16.5931 16.2093 17.1412C16.2093 17.6893 15.7634 18.1336 15.2133 18.1336C14.6633 18.1336 14.2174 17.6893 14.2174 17.1412ZM3.25458 17.1412C3.25458 16.5931 3.70049 16.1488 4.25055 16.1488C4.80061 16.1488 5.24652 16.5931 5.24652 17.1412C5.24652 17.6893 4.80061 18.1336 4.25055 18.1336C3.70049 18.1336 3.25458 17.6893 3.25458 17.1412Z" fill="#5C5F62"/>
</g>
<defs>
<clipPath id="clip0_1281_3133">
<rect width="19.8484" height="19.8484" fill="white" transform="translate(0.270203 0.27002)"/>
</clipPath>
</defs>
</svg>
