<svg width="66" height="66" viewBox="0 0 66 66" fill="none" xmlns="http://www.w3.org/2000/svg">
<g clip-path="url(#clip0_1283_1072)">
<path d="M66 0H0V66H66V0Z" fill="white"/>
<path d="M62.7891 3.21094H3.2175V62.7825H62.7891V3.21094Z" fill="#FFCB05"/>
<path d="M60.9246 32.8253C60.9246 39.1844 48.4242 44.339 33.0066 44.339C17.5857 44.339 5.0853 39.1844 5.0853 32.8253C5.0853 26.4662 17.5857 21.3149 33.0066 21.3149C48.4242 21.3149 60.9246 26.4662 60.9246 32.8253Z" fill="#00678F"/>
<path d="M15.1173 38.5078L18.0048 26.9941H22.6182V33.6997L25.6509 26.9941H30.4128L27.5286 38.5078H24.4959L26.2251 31.0762L22.6182 38.5078H20.1696V31.0762L18.2886 38.5078H15.1173Z" fill="white"/>
<path d="M31.3467 38.6526L31.779 37.0488H35.0988L34.6632 38.6526H31.3467Z" fill="#ED1D24"/>
<path d="M38.775 38.5078L41.6592 26.9941H44.979L46.4244 33.1189L48.0084 26.9941H51.0378L48.1536 38.5078H44.979L43.3917 32.2411L41.8044 38.5078H38.775Z" fill="white"/>
<path d="M31.3467 26.9941L30.624 29.9113H33.6567L32.0232 36.2374H35.3397L36.9765 29.9113H40.0059L40.7253 26.9941H31.3467Z" fill="#FFCB05"/>
</g>
<defs>
<clipPath id="clip0_1283_1072">
<rect width="66" height="66" fill="white"/>
</clipPath>
</defs>
</svg>
