<svg width="132" height="36" viewBox="0 0 132 36" fill="none" xmlns="http://www.w3.org/2000/svg">
<g clip-path="url(#clip0_1283_1068)">
<path d="M124.939 17.0162L132 35.7103C129.919 35.4131 127.839 35.0409 125.721 34.7055L121.743 24.3763L117.656 33.8528C115.65 33.5174 113.679 33.4057 111.673 33.1453L118.845 16.794L112.34 0.034668H118.361L122.002 9.39837L125.905 0.034668H131.999L124.939 17.0162ZM107.586 0.034668H102.123V32.4401C103.907 32.5519 105.764 32.6256 107.586 32.848V0.034668ZM97.403 32.0679C92.424 31.7337 87.4435 31.4377 82.3526 31.3247V0.0348115H87.9265V26.0481C91.1229 26.1219 94.3182 26.3812 97.403 26.5298V32.0679ZM76.4054 12.7078V18.2815H68.7876V30.9535H63.2888V0.034668H78.8968V5.60838H68.7887V12.708H76.4066L76.4054 12.7078ZM53.9227 5.60838V31.2509C52.064 31.2509 50.1697 31.2509 48.3478 31.3247V5.60838H42.5875V0.034668H59.7186V5.60838H53.9227ZM36.5678 18.5777C34.1156 18.5777 31.2163 18.5777 29.1353 18.6907V26.9769C32.4055 26.7534 35.6758 26.4941 38.9828 26.3824V31.7337L23.5616 32.9609V0.034668H38.9818V5.60838H29.1351V13.1157C31.2911 13.1157 34.5983 13.004 36.5675 13.004V18.5789L36.5678 18.5777ZM5.68441 15.4561V34.929C3.67944 35.1526 1.89442 35.413 0 35.7103V0.034668H5.31457L12.5604 20.2891V0.034668H18.1353V33.4057C16.1659 33.7411 14.1587 33.8528 12.0407 34.149L5.68441 15.4561Z" fill="#E50914"/>
</g>
<defs>
<clipPath id="clip0_1283_1068">
<rect width="132" height="35.7456" fill="white"/>
</clipPath>
</defs>
</svg>
