<svg width="92" height="54" viewBox="0 0 92 54" fill="none" xmlns="http://www.w3.org/2000/svg">
<g clip-path="url(#clip0_1283_1070)">
<path d="M12.9607 39.1963C10.3592 40.9306 11.2263 44.2259 16.7762 45.7868C22.4996 47.6946 28.7432 48.2149 34.8135 47.1743C35.1603 47.1743 35.5072 47.0008 35.6806 47.0008V41.1041L29.7839 43.0118C27.5292 43.7056 25.2745 43.879 23.0199 43.3587C21.2855 42.8384 21.6324 41.7978 23.7136 40.9306L35.6806 36.7682V30.3511L19.0309 36.0744C16.9497 36.7682 14.8685 37.8088 12.9607 39.1963ZM53.1976 13.181V30.0042C60.3084 33.4729 65.8583 30.0042 65.8583 20.9856C65.8583 11.7936 62.563 7.63113 53.0241 4.33587C47.9945 2.60152 42.7915 1.04061 37.5884 0V50.1227L49.7289 53.7648V11.6201C49.7289 9.71235 49.7289 8.32487 51.1163 8.84518C53.0241 9.36548 53.1976 11.2733 53.1976 13.181ZM75.7441 35.2073C70.7145 33.4729 65.338 32.7792 60.1349 33.2995C57.36 33.4729 54.7585 34.1667 52.3304 35.0338L51.8101 35.2073V41.9712L63.0833 37.8088C65.338 37.1151 67.5926 36.9416 69.8473 37.4619C71.5816 37.9822 71.2348 39.0228 69.1536 39.89L51.8101 46.3071V52.8976L75.7441 44.0525C77.4784 43.3587 79.0393 42.4915 80.4268 41.1041C81.6409 39.3697 81.1206 36.9416 75.7441 35.2073Z" fill="black"/>
</g>
<defs>
<clipPath id="clip0_1283_1070">
<rect width="92" height="53.7648" fill="white"/>
</clipPath>
</defs>
</svg>
