<svg width="37" height="28" viewBox="0 0 37 28" fill="none" xmlns="http://www.w3.org/2000/svg">
<path d="M16.9583 9.67396C16.9583 17.5997 10.9582 25.8907 1.54167 27.75L0.0246667 24.4724C3.43946 23.1851 6.44262 18.7035 6.77717 15.614C2.93687 15.0097 0 11.6874 0 7.67596C0 2.77038 3.98367 0 8.01512 0C12.6632 0 16.9583 3.55354 16.9583 9.67396ZM37 9.67396C37 17.5997 30.9998 25.8907 21.5833 27.75L20.0663 24.4724C23.4811 23.1851 26.4843 18.7035 26.8188 15.614C22.9785 15.0097 20.0417 11.6874 20.0417 7.67596C20.0417 2.77038 24.0253 0 28.0568 0C32.7049 0 37 3.55354 37 9.67396Z" fill="#3E2180"/>
</svg>
