<svg width="37" height="28" viewBox="0 0 37 28" fill="none" xmlns="http://www.w3.org/2000/svg">
<path d="M20.0417 9.67396C20.0417 17.5997 26.0418 25.8907 35.4583 27.75L36.9753 24.4724C33.5605 23.1851 30.5574 18.7035 30.2228 15.614C34.0631 15.0097 37 11.6874 37 7.67596C37 2.77038 33.0163 0 28.9849 0C24.3368 0 20.0417 3.55354 20.0417 9.67396ZM0 9.67396C0 17.5997 6.00017 25.8907 15.4167 27.75L16.9337 24.4724C13.5189 23.1851 10.5157 18.7035 10.1812 15.614C14.0215 15.0097 16.9583 11.6874 16.9583 7.67596C16.9583 2.77038 12.9747 0 8.94321 0C4.29509 0 0 3.55354 0 9.67396Z" fill="#3E2180"/>
</svg>
