<svg width="119" height="23" viewBox="0 0 119 23" fill="none" xmlns="http://www.w3.org/2000/svg">
<path d="M11.8405 0.239746L15.4992 7.65189L23.681 8.84778L17.7607 14.6141L19.1579 22.7604L11.8405 18.9122L4.52307 22.7604L5.92024 14.6141L0 8.84778L8.18178 7.65189L11.8405 0.239746Z" fill="#3E2180"/>
<path d="M35.5215 0.239746L39.1802 7.65189L47.362 8.84778L41.4417 14.6141L42.8389 22.7604L35.5215 18.9122L28.2041 22.7604L29.6012 14.6141L23.681 8.84778L31.8628 7.65189L35.5215 0.239746Z" fill="#3E2180"/>
<path d="M59.2025 0.239746L62.8612 7.65189L71.043 8.84778L65.1228 14.6141L66.5199 22.7604L59.2025 18.9122L51.8851 22.7604L53.2823 14.6141L47.362 8.84778L55.5438 7.65189L59.2025 0.239746Z" fill="#3E2180"/>
<path d="M82.8835 0.239746L86.5422 7.65189L94.724 8.84778L88.8038 14.6141L90.2009 22.7604L82.8835 18.9122L75.5661 22.7604L76.9633 14.6141L71.043 8.84778L79.2248 7.65189L82.8835 0.239746Z" fill="#3E2180"/>
<path d="M106.564 0.239746L110.223 7.65189L118.405 8.84778L112.484 14.6141L113.882 22.7604L106.564 18.9122L99.2468 22.7604L100.644 14.6141L94.7237 8.84778L102.905 7.65189L106.564 0.239746Z" fill="#C4C4C4"/>
</svg>
