<svg width="20" height="24" viewBox="0 0 20 24" fill="none" xmlns="http://www.w3.org/2000/svg">
<path fill-rule="evenodd" clip-rule="evenodd" d="M19.5999 9.6C19.5999 4.296 15.3039 0 9.9999 0C4.6959 0 0.399902 4.296 0.399902 9.6C0.399902 9.78 0.399902 9.948 0.4119 10.128C0.5679 14.388 2.7999 19.272 8.9679 23.676C9.5799 24.108 10.4199 24.108 11.0319 23.676C17.1999 19.272 19.4319 14.388 19.5879 10.128C19.5999 9.94803 19.5999 9.77996 19.5999 9.6ZM12.5451 12.1452C13.2207 11.4708 13.5999 10.5552 13.5999 9.6C13.5999 8.6448 13.2195 7.7304 12.5451 7.0548C11.8707 6.3792 10.9551 6 9.9999 6C9.0447 6 8.1303 6.3804 7.4547 7.0548C6.7791 7.7292 6.3999 8.6448 6.3999 9.6C6.3999 10.5552 6.7791 11.4708 7.4547 12.1452C8.1291 12.8208 9.0447 13.2 9.9999 13.2C10.9539 13.2 11.8695 12.8208 12.5451 12.1452Z" fill="#BF4D01"/>
</svg>
