<svg width="22" height="22" viewBox="0 0 22 22" fill="none" xmlns="http://www.w3.org/2000/svg">
<path d="M15.4089 0.25C19.0523 0.25 21.5 2.80647 21.5 6.61048V15.3895C21.5 19.1935 19.0523 21.75 15.4078 21.75H6.09115C2.44766 21.75 0 19.1935 0 15.3895V6.61048C0 2.80647 2.44766 0.25 6.09115 0.25H15.4089ZM16.5943 11.5913C15.442 10.8724 14.5523 11.882 14.3124 12.2048C14.081 12.5165 13.8821 12.8604 13.6724 13.2044C13.16 14.053 12.573 15.0315 11.5569 15.6006C10.0803 16.4183 8.95927 15.665 8.15285 15.117C7.85017 14.9128 7.55614 14.7198 7.26319 14.5911C6.54108 14.2794 5.89141 14.6344 4.92716 15.8591C4.42125 16.4993 3.91967 17.1338 3.4116 17.7662C3.10784 18.1445 3.18027 18.728 3.58997 18.981C4.24397 19.3837 5.04174 19.6 5.94329 19.6H15.0031C15.5144 19.6 16.0268 19.5301 16.5154 19.3704C17.6159 19.0109 18.4893 18.1877 18.9455 17.1005C19.3303 16.1864 19.5173 15.077 19.1574 14.154C19.0374 13.8478 18.8579 13.5627 18.6061 13.312C17.9456 12.6563 17.3283 12.0439 16.5943 11.5913ZM6.98627 4.55C5.50423 4.55 4.3 5.75586 4.3 7.2375C4.3 8.71914 5.50423 9.925 6.98627 9.925C8.46724 9.925 9.67255 8.71914 9.67255 7.2375C9.67255 5.75586 8.46724 4.55 6.98627 4.55Z" fill="#3E2180"/>
</svg>
