<svg width="40" height="40" viewBox="0 0 40 40" fill="none" xmlns="http://www.w3.org/2000/svg">
<g clip-path="url(#clip0_1400_1610)">
<path fill-rule="evenodd" clip-rule="evenodd" d="M36 16C36 7.16 28.84 0 20 0C11.16 0 4 7.16 4 16C4 16.3 4 16.58 4.02 16.88C4.28 23.98 8 32.12 18.28 39.46C19.3 40.18 20.7 40.18 21.72 39.46C32 32.12 35.72 23.98 35.98 16.88C36 16.5801 36 16.2999 36 16ZM24.242 20.242C25.368 19.118 26 17.592 26 16C26 14.408 25.366 12.884 24.242 11.758C23.118 10.632 21.592 10 20 10C18.408 10 16.884 10.634 15.758 11.758C14.632 12.882 14 14.408 14 16C14 17.592 14.632 19.118 15.758 20.242C16.882 21.368 18.408 22 20 22C21.59 22 23.116 21.368 24.242 20.242Z" fill="#3E2180"/>
</g>
<defs>
<clipPath id="clip0_1400_1610">
<rect width="40" height="40" fill="white"/>
</clipPath>
</defs>
</svg>
