<svg width="40" height="41" viewBox="0 0 40 41" fill="none" xmlns="http://www.w3.org/2000/svg">
<path d="M15.752 14.4512L14.684 9.11122C14.404 7.70922 13.172 6.69922 11.742 6.69922H5.27602C3.55602 6.69922 2.12402 8.15322 2.20202 9.87122C3.12402 30.1932 13.2 37.9212 31.032 38.6972C32.75 38.7712 34.2 37.3452 34.2 35.6272V29.1572C34.2 27.7272 33.19 26.4952 31.788 26.2152L26.448 25.1472C25.122 24.8812 23.782 25.5372 23.176 26.7472L22.2 28.6972C18.2 28.6972 12.2 22.6972 12.2 18.6972L14.15 17.7212C15.362 17.1172 16.018 15.7772 15.752 14.4512Z" fill="#3E2180"/>
</svg>
