<svg width="40" height="41" viewBox="0 0 40 41" fill="none" xmlns="http://www.w3.org/2000/svg">
<g clip-path="url(#clip0_254_1519)">
<path d="M20 0.721191C8.955 0.721191 0 9.67494 0 20.7212C0 31.7662 8.955 40.7212 20 40.7212C31.045 40.7212 40 31.7662 40 20.7212C40 9.67494 31.045 0.721191 20 0.721191ZM14.805 28.5674H10.725V16.2924H14.805V28.5674ZM12.765 14.6162H12.7388C11.3688 14.6162 10.4838 13.6724 10.4838 12.4949C10.4838 11.2912 11.3962 10.3749 12.7913 10.3749C14.1863 10.3749 15.0462 11.2912 15.0725 12.4949C15.0725 13.6737 14.1862 14.6162 12.765 14.6162ZM29.5163 28.5674H25.4363V21.9999C25.4363 20.3499 24.8463 19.2249 23.3687 19.2249C22.2425 19.2249 21.5712 19.9837 21.2762 20.7174C21.1687 20.9799 21.1413 21.3462 21.1413 21.7124V28.5674H17.0625C17.0625 28.5674 17.1162 17.4449 17.0625 16.2924H21.1425V18.0312C21.6838 17.1949 22.6538 16.0037 24.82 16.0037C27.5038 16.0037 29.5163 17.7587 29.5163 21.5287V28.5674Z" fill="#3E2180"/>
</g>
<defs>
<clipPath id="clip0_254_1519">
<rect width="40" height="40" fill="white" transform="translate(0 0.721191)"/>
</clipPath>
</defs>
</svg>
