<svg width="40" height="31" viewBox="0 0 40 41" fill="none" xmlns="http://www.w3.org/2000/svg">
<path fill-rule="evenodd" clip-rule="evenodd" d="M20 0.721191C31.0383 0.721191 40 9.68291 40 20.7212C40 31.7595 31.0383 40.7212 20 40.7212C8.96172 40.7212 0 31.7595 0 20.7212C0 9.68291 8.96172 0.721191 20 0.721191ZM16.4773 31.3585C25.3275 31.3585 30.1666 24.0249 30.1666 17.6692C30.1666 17.4597 30.1666 17.2502 30.1566 17.0506C31.0945 16.3721 31.9127 15.524 32.5612 14.5562C31.7032 14.9353 30.7752 15.1948 29.7974 15.3145C30.7952 14.7158 31.5535 13.7779 31.9127 12.6505C30.9848 13.1992 29.9571 13.5983 28.8595 13.8178C27.9815 12.8799 26.7343 12.3013 25.3474 12.3013C22.6934 12.3013 20.5382 14.4564 20.5382 17.1105C20.5382 17.4896 20.5781 17.8588 20.6679 18.208C16.6669 18.0085 13.1248 16.0928 10.7502 13.1792C10.341 13.8877 10.1016 14.7158 10.1016 15.5938C10.1016 17.2601 10.9497 18.7368 12.2468 19.5949C11.4585 19.5749 10.7202 19.3554 10.0716 18.9963V19.0561C10.0716 21.3909 11.7279 23.3265 13.933 23.7756C13.5339 23.8853 13.1048 23.9452 12.6659 23.9452C12.3565 23.9452 12.0572 23.9153 11.7579 23.8553C12.3665 25.771 14.1425 27.158 16.2478 27.1978C14.6015 28.485 12.5262 29.2533 10.2712 29.2533C9.88203 29.2533 9.50289 29.2333 9.12375 29.1835C11.2291 30.5603 13.7634 31.3585 16.4773 31.3585V31.3585Z" fill="white"/>
</svg>
