<svg width="40" height="31" viewBox="0 0 40 41" fill="none" xmlns="http://www.w3.org/2000/svg">
<g clip-path="url(#clip0_1282_1384)">
<path d="M20 0.720703C8.955 0.720703 0 9.67445 0 20.7207C0 31.7657 8.955 40.7207 20 40.7207C31.045 40.7207 40 31.7657 40 20.7207C40 9.67445 31.045 0.720703 20 0.720703ZM14.805 28.567H10.725V16.292H14.805V28.567ZM12.765 14.6157H12.7388C11.3688 14.6157 10.4838 13.672 10.4838 12.4945C10.4838 11.2907 11.3962 10.3745 12.7913 10.3745C14.1863 10.3745 15.0462 11.2907 15.0725 12.4945C15.0725 13.6732 14.1862 14.6157 12.765 14.6157ZM29.5163 28.567H25.4363V21.9995C25.4363 20.3495 24.8463 19.2245 23.3687 19.2245C22.2425 19.2245 21.5712 19.9832 21.2762 20.717C21.1687 20.9795 21.1413 21.3457 21.1413 21.712V28.567H17.0625C17.0625 28.567 17.1162 17.4445 17.0625 16.292H21.1425V18.0307C21.6838 17.1945 22.6538 16.0032 24.82 16.0032C27.5038 16.0032 29.5163 17.7582 29.5163 21.5282V28.567Z" fill="white"/>
</g>
<defs>
<clipPath id="clip0_1282_1384">
<rect width="40" height="40" fill="white" transform="translate(0 0.720703)"/>
</clipPath>
</defs>
</svg>
