<svg width="20" height="18" viewBox="0 0 20 18" fill="none" xmlns="http://www.w3.org/2000/svg">
<path d="M17.1151 2.58208C16.6936 2.16039 16.1932 1.82588 15.6423 1.59765C15.0915 1.36942 14.5012 1.25195 13.9049 1.25195C13.3087 1.25195 12.7183 1.36942 12.1675 1.59765C11.6167 1.82588 11.1163 2.16039 10.6948 2.58208L9.82005 3.45683L8.9453 2.58208C8.09392 1.7307 6.93919 1.25239 5.73515 1.25239C4.53111 1.25239 3.37639 1.7307 2.525 2.58208C1.67362 3.43347 1.19531 4.58819 1.19531 5.79223C1.19531 6.99627 1.67362 8.151 2.525 9.00238L3.39975 9.87713L9.82005 16.2974L16.2403 9.87713L17.1151 9.00238C17.5368 8.58089 17.8713 8.08045 18.0995 7.52964C18.3278 6.97883 18.4452 6.38845 18.4452 5.79223C18.4452 5.19601 18.3278 4.60564 18.0995 4.05483C17.8713 3.50402 17.5368 3.00357 17.1151 2.58208V2.58208Z" stroke="#BF4D01" stroke-width="1.5" stroke-linecap="round" stroke-linejoin="round"/>
</svg>
