<svg width="50" height="50" viewBox="0 0 50 50" fill="none" xmlns="http://www.w3.org/2000/svg">
<g clip-path="url(#clip0_1391_1550)">
<path d="M35 50.0025C34.6469 50.0032 34.2977 49.9286 33.9757 49.7838C33.6537 49.6389 33.3662 49.4271 33.1325 49.1625L13.1325 26.6625C12.7257 26.2052 12.501 25.6145 12.501 25.0025C12.501 24.3905 12.7257 23.7997 13.1325 23.3425L33.1325 0.842476C33.3505 0.597233 33.6146 0.397328 33.9099 0.254175C34.2051 0.111022 34.5257 0.0274252 34.8533 0.00815706C35.1808 -0.0111111 35.509 0.0343269 35.819 0.141877C36.129 0.249427 36.4147 0.416982 36.66 0.634976C36.9052 0.852971 37.1051 1.11713 37.2483 1.41239C37.3914 1.70764 37.475 2.02819 37.4943 2.35575C37.5136 2.68331 37.4681 3.01146 37.3606 3.32146C37.253 3.63145 37.0855 3.91723 36.8675 4.16248L18.3425 25.0025L36.8675 45.8425C37.1884 46.2023 37.3984 46.6473 37.472 47.1238C37.5456 47.6003 37.4796 48.0879 37.2822 48.5278C37.0847 48.9677 36.7641 49.341 36.3592 49.6027C35.9542 49.8643 35.4821 50.0032 35 50.0025Z" fill="#BF4D01"/>
</g>
<defs>
<clipPath id="clip0_1391_1550">
<rect width="50" height="50" fill="white"/>
</clipPath>
</defs>
</svg>
