<svg width="50" height="50" viewBox="0 0 50 50" fill="none" xmlns="http://www.w3.org/2000/svg">
<g clip-path="url(#clip0_1391_1552)">
<path d="M15 50.0025C15.3531 50.0032 15.7023 49.9286 16.0243 49.7838C16.3463 49.6389 16.6338 49.4271 16.8675 49.1625L36.8675 26.6625C37.2743 26.2052 37.499 25.6145 37.499 25.0025C37.499 24.3905 37.2743 23.7997 36.8675 23.3425L16.8675 0.842476C16.6495 0.597233 16.3854 0.397328 16.0901 0.254175C15.7949 0.111022 15.4743 0.0274252 15.1467 0.00815706C14.8192 -0.0111111 14.491 0.0343269 14.181 0.141877C13.871 0.249427 13.5853 0.416982 13.34 0.634976C13.0948 0.852971 12.8949 1.11713 12.7517 1.41239C12.6086 1.70764 12.525 2.02819 12.5057 2.35575C12.4864 2.68331 12.5319 3.01146 12.6394 3.32146C12.747 3.63145 12.9145 3.91723 13.1325 4.16248L31.6575 25.0025L13.1325 45.8425C12.8116 46.2023 12.6016 46.6473 12.528 47.1238C12.4544 47.6003 12.5204 48.0879 12.7178 48.5278C12.9153 48.9677 13.2359 49.341 13.6408 49.6027C14.0458 49.8643 14.5179 50.0032 15 50.0025Z" fill="#BF4D01"/>
</g>
<defs>
<clipPath id="clip0_1391_1552">
<rect width="50" height="50" fill="white" transform="matrix(-1 0 0 1 50 0)"/>
</clipPath>
</defs>
</svg>
