<svg width="23" height="23" viewBox="0 0 23 23" fill="none" xmlns="http://www.w3.org/2000/svg">
<g clip-path="url(#clip0_0_4796)">
<path d="M20.125 9.58343C20.125 16.2918 11.5 22.0418 11.5 22.0418C11.5 22.0418 2.875 16.2918 2.875 9.58343C2.875 7.29594 3.7837 5.10214 5.4012 3.48464C7.0187 1.86714 9.21251 0.958435 11.5 0.958435C13.7875 0.958435 15.9813 1.86714 17.5988 3.48464C19.2163 5.10214 20.125 7.29594 20.125 9.58343Z" stroke="#BF4D01" stroke-width="2" stroke-linecap="round" stroke-linejoin="round"/>
<path d="M11.5 12.4584C13.0878 12.4584 14.375 11.1713 14.375 9.58344C14.375 7.99562 13.0878 6.70844 11.5 6.70844C9.91218 6.70844 8.625 7.99562 8.625 9.58344C8.625 11.1713 9.91218 12.4584 11.5 12.4584Z" stroke="#BF4D01" stroke-width="2" stroke-linecap="round" stroke-linejoin="round"/>
</g>
<defs>
<clipPath id="clip0_0_4796">
<rect width="23" height="23" fill="white"/>
</clipPath>
</defs>
</svg>
