<svg width="30" height="30" viewBox="0 0 30 30" fill="none" xmlns="http://www.w3.org/2000/svg">
<g clip-path="url(#clip0_0_1379)">
<path d="M28.9623 12.825L15.8373 0.949978C15.6076 0.742678 15.3092 0.62793 14.9998 0.62793C14.6904 0.62793 14.392 0.742678 14.1623 0.949978L1.03728 12.825C0.914166 12.935 0.81392 13.0681 0.742266 13.2168C0.670611 13.3656 0.628952 13.5269 0.619666 13.6918C0.61038 13.8566 0.63365 14.0216 0.688146 14.1775C0.742643 14.3333 0.827299 14.4769 0.937281 14.6C1.04726 14.7231 1.18042 14.8233 1.32914 14.895C1.47786 14.9666 1.63925 15.0083 1.80407 15.0176C1.96889 15.0269 2.13393 15.0036 2.28976 14.9491C2.4456 14.8946 2.58917 14.81 2.71228 14.7L14.9998 3.56248L27.2873 14.675C27.4104 14.785 27.554 14.8696 27.7098 14.9241C27.8656 14.9786 28.0307 15.0019 28.1955 14.9926C28.3603 14.9833 28.5217 14.9416 28.6704 14.87C28.8191 14.7983 28.9523 14.6981 29.0623 14.575C29.1723 14.4519 29.2569 14.3083 29.3114 14.1525C29.3659 13.9966 29.3892 13.8316 29.3799 13.6668C29.3706 13.5019 29.3289 13.3406 29.2573 13.1918C29.1856 13.0431 29.0854 12.91 28.9623 12.8V12.825Z" fill="#BF4D01"/>
<path d="M26.25 16.25C25.9185 16.25 25.6005 16.3817 25.3661 16.6161C25.1317 16.8505 25 17.1685 25 17.5V26.875H5V17.5C5 17.1685 4.8683 16.8505 4.63388 16.6161C4.39946 16.3817 4.08152 16.25 3.75 16.25C3.41848 16.25 3.10054 16.3817 2.86612 16.6161C2.6317 16.8505 2.5 17.1685 2.5 17.5V28.125C2.5 28.4565 2.6317 28.7745 2.86612 29.0089C3.10054 29.2433 3.41848 29.375 3.75 29.375H26.25C26.5815 29.375 26.8995 29.2433 27.1339 29.0089C27.3683 28.7745 27.5 28.4565 27.5 28.125V17.5C27.5 17.1685 27.3683 16.8505 27.1339 16.6161C26.8995 16.3817 26.5815 16.25 26.25 16.25Z" fill="#BF4D01"/>
</g>
<defs>
<clipPath id="clip0_0_1379">
<rect width="30" height="30" fill="white"/>
</clipPath>
</defs>
</svg>
