<svg width="20" height="20" viewBox="0 0 20 20" fill="none" xmlns="http://www.w3.org/2000/svg">
<path d="M18.3999 8.80002H11.1999V1.60002C11.1999 1.28176 11.0735 0.97654 10.8484 0.751496C10.6234 0.526453 10.3182 0.400024 9.9999 0.400024C9.68164 0.400024 9.37642 0.526453 9.15137 0.751496C8.92633 0.97654 8.7999 1.28176 8.7999 1.60002V8.80002H1.5999C1.28164 8.80002 0.976418 8.92645 0.751374 9.1515C0.526331 9.37654 0.399902 9.68176 0.399902 10C0.399902 10.3183 0.526331 10.6235 0.751374 10.8486C0.976418 11.0736 1.28164 11.2 1.5999 11.2H8.7999V18.4C8.7999 18.7183 8.92633 19.0235 9.15137 19.2486C9.37642 19.4736 9.68164 19.6 9.9999 19.6C10.3182 19.6 10.6234 19.4736 10.8484 19.2486C11.0735 19.0235 11.1999 18.7183 11.1999 18.4V11.2H18.3999C18.7182 11.2 19.0234 11.0736 19.2484 10.8486C19.4735 10.6235 19.5999 10.3183 19.5999 10C19.5999 9.68176 19.4735 9.37654 19.2484 9.1515C19.0234 8.92645 18.7182 8.80002 18.3999 8.80002Z" fill="#3E2180"/>
</svg>
